<svg role="img" viewBox="0 0 24 24" xmlns="http://www.w3.org/2000/svg"><title>Forgejo</title><path d="M16.59.07c-.94.05-1.8.56-2.3 1.36l-.04.1h-.63c-.71 0-1.14 0-1.42.03A7.04 7.04 0 0 0 5.85 8.1l-.02 5.3v5.15l-.1.07a2.88 2.88 0 1 0 3.02 0l-.09-.07v-1.31c.01-1.27.01-1.31.04-1.47a4.25 4.25 0 0 1 3.65-3.67c.17-.02.23-.02 1.03-.04h.86l.07.11a2.89 2.89 0 1 0-.01-3.02l-.06.09h-.87c-.92 0-1.03 0-1.42.06a7.04 7.04 0 0 0-3.23 1.32l-.06.03V9.5c0-1.25 0-1.33.07-1.66.14-.84.53-1.58 1.14-2.2a4.14 4.14 0 0 1 2.28-1.21c.31-.06.43-.07 1.3-.07h.8l.02.03c.18.3.4.56.66.78a2.94 2.94 0 0 0 3.1.37c.31-.16.5-.3.76-.56a2.84 2.84 0 0 0 0-4.06 2.86 2.86 0 0 0-2.2-.84Zm.46 1.72c.43.11.75.43.86.86.02.07.02.11.02.3 0 .17 0 .22-.02.29-.11.43-.43.74-.86.86-.07.02-.11.02-.3.02-.18 0-.22 0-.29-.02-.6-.16-1-.76-.88-1.37.09-.48.45-.85.92-.95.14-.04.43-.03.55 0Zm-.1 7.69a1.19 1.19 0 1 1-.4 2.34 1.2 1.2 0 0 1 .4-2.36Zm-9.5 10.41a1.19 1.19 0 1 1-.4 2.34 1.19 1.19 0 0 1 .4-2.34Zm0 0"/></svg>